<mxfile host="app.diagrams.net" modified="2024-06-09T15:18:27.453Z" agent="Mozilla/5.0 (Windows NT 10.0; Win64; x64) AppleWebKit/537.36 (KHTML, like Gecko) Chrome/125.0.0.0 Safari/537.36" etag="cjV3VvTIJBgjirZg6pf_" version="24.5.2" type="device">
  <diagram name="Página-1" id="uzbmnb9EvbkL4qx05nvM">
    <mxGraphModel dx="2056" dy="561" grid="1" gridSize="10" guides="1" tooltips="1" connect="1" arrows="1" fold="1" page="1" pageScale="1" pageWidth="827" pageHeight="1169" math="0" shadow="0">
      <root>
        <mxCell id="0" />
        <mxCell id="1" parent="0" />
        <mxCell id="u_pzTZ31QuZvwGdVfqPU-1" value="&lt;font style=&quot;font-size: 14px;&quot;&gt;&lt;b&gt;Diagrama de Arquitectura de Solución de Despacho de Pedidos&lt;/b&gt;&lt;/font&gt;&lt;div&gt;&lt;font style=&quot;font-size: 14px;&quot;&gt;&lt;b&gt;(Desacoplada y Asíncrona)&lt;/b&gt;&lt;/font&gt;&lt;/div&gt;" style="text;html=1;align=center;verticalAlign=middle;whiteSpace=wrap;rounded=0;" vertex="1" parent="1">
          <mxGeometry x="-6.5" y="10" width="620" height="30" as="geometry" />
        </mxCell>
        <mxCell id="u_pzTZ31QuZvwGdVfqPU-12" style="edgeStyle=orthogonalEdgeStyle;rounded=0;orthogonalLoop=1;jettySize=auto;html=1;" edge="1" parent="1" source="u_pzTZ31QuZvwGdVfqPU-2" target="u_pzTZ31QuZvwGdVfqPU-7">
          <mxGeometry relative="1" as="geometry" />
        </mxCell>
        <mxCell id="u_pzTZ31QuZvwGdVfqPU-2" value="Amazon SQS" style="sketch=0;outlineConnect=0;fontColor=#232F3E;gradientColor=none;strokeColor=#ffffff;fillColor=#232F3E;dashed=0;verticalLabelPosition=middle;verticalAlign=bottom;align=center;html=1;whiteSpace=wrap;fontSize=10;fontStyle=1;spacing=3;shape=mxgraph.aws4.productIcon;prIcon=mxgraph.aws4.sqs;" vertex="1" parent="1">
          <mxGeometry x="273" y="89" width="80" height="100" as="geometry" />
        </mxCell>
        <mxCell id="u_pzTZ31QuZvwGdVfqPU-4" style="edgeStyle=orthogonalEdgeStyle;rounded=0;orthogonalLoop=1;jettySize=auto;html=1;" edge="1" parent="1" source="u_pzTZ31QuZvwGdVfqPU-3" target="u_pzTZ31QuZvwGdVfqPU-2">
          <mxGeometry relative="1" as="geometry" />
        </mxCell>
        <mxCell id="u_pzTZ31QuZvwGdVfqPU-3" value="RegistrarPedido" style="outlineConnect=0;dashed=0;verticalLabelPosition=bottom;verticalAlign=top;align=center;html=1;shape=mxgraph.aws3.lambda_function;fillColor=#F58534;gradientColor=none;" vertex="1" parent="1">
          <mxGeometry x="107" y="103" width="69" height="72" as="geometry" />
        </mxCell>
        <mxCell id="u_pzTZ31QuZvwGdVfqPU-6" value="" style="dashed=0;outlineConnect=0;html=1;align=center;labelPosition=center;verticalLabelPosition=bottom;verticalAlign=top;shape=mxgraph.weblogos.json_2" vertex="1" parent="1">
          <mxGeometry x="193" y="118" width="65" height="20" as="geometry" />
        </mxCell>
        <mxCell id="u_pzTZ31QuZvwGdVfqPU-7" value="ProcesarPedido" style="outlineConnect=0;dashed=0;verticalLabelPosition=bottom;verticalAlign=top;align=center;html=1;shape=mxgraph.aws3.lambda_function;fillColor=#F58534;gradientColor=none;" vertex="1" parent="1">
          <mxGeometry x="403" y="103" width="69" height="72" as="geometry" />
        </mxCell>
        <mxCell id="u_pzTZ31QuZvwGdVfqPU-17" style="edgeStyle=orthogonalEdgeStyle;rounded=0;orthogonalLoop=1;jettySize=auto;html=1;entryX=-0.024;entryY=0.31;entryDx=0;entryDy=0;entryPerimeter=0;" edge="1" parent="1" target="u_pzTZ31QuZvwGdVfqPU-16">
          <mxGeometry relative="1" as="geometry">
            <mxPoint x="728.5" y="215" as="sourcePoint" />
          </mxGeometry>
        </mxCell>
        <mxCell id="u_pzTZ31QuZvwGdVfqPU-18" value="Despachador 3" style="image;aspect=fixed;perimeter=ellipsePerimeter;html=1;align=center;shadow=0;dashed=0;spacingTop=3;image=img/lib/active_directory/user.svg;" vertex="1" parent="1">
          <mxGeometry x="641" y="330" width="18.5" height="50" as="geometry" />
        </mxCell>
        <mxCell id="u_pzTZ31QuZvwGdVfqPU-19" value="" style="shape=mxgraph.signs.transportation.truck_1;html=1;pointerEvents=1;fillColor=#000000;strokeColor=none;verticalLabelPosition=bottom;verticalAlign=top;align=center;" vertex="1" parent="1">
          <mxGeometry x="721" y="339" width="99" height="51" as="geometry" />
        </mxCell>
        <mxCell id="u_pzTZ31QuZvwGdVfqPU-20" style="edgeStyle=orthogonalEdgeStyle;rounded=0;orthogonalLoop=1;jettySize=auto;html=1;entryX=-0.024;entryY=0.31;entryDx=0;entryDy=0;entryPerimeter=0;" edge="1" parent="1" source="u_pzTZ31QuZvwGdVfqPU-18" target="u_pzTZ31QuZvwGdVfqPU-19">
          <mxGeometry relative="1" as="geometry" />
        </mxCell>
        <mxCell id="u_pzTZ31QuZvwGdVfqPU-26" value="Despachador 2" style="image;aspect=fixed;perimeter=ellipsePerimeter;html=1;align=center;shadow=0;dashed=0;spacingTop=3;image=img/lib/active_directory/user.svg;" vertex="1" parent="1">
          <mxGeometry x="641" y="230" width="18.5" height="50" as="geometry" />
        </mxCell>
        <mxCell id="u_pzTZ31QuZvwGdVfqPU-27" value="" style="shape=mxgraph.signs.transportation.truck_1;html=1;pointerEvents=1;fillColor=#000000;strokeColor=none;verticalLabelPosition=bottom;verticalAlign=top;align=center;" vertex="1" parent="1">
          <mxGeometry x="721" y="239" width="99" height="51" as="geometry" />
        </mxCell>
        <mxCell id="u_pzTZ31QuZvwGdVfqPU-28" style="edgeStyle=orthogonalEdgeStyle;rounded=0;orthogonalLoop=1;jettySize=auto;html=1;entryX=-0.024;entryY=0.31;entryDx=0;entryDy=0;entryPerimeter=0;" edge="1" parent="1" source="u_pzTZ31QuZvwGdVfqPU-26" target="u_pzTZ31QuZvwGdVfqPU-27">
          <mxGeometry relative="1" as="geometry" />
        </mxCell>
        <mxCell id="u_pzTZ31QuZvwGdVfqPU-29" value="Despachador 1" style="image;aspect=fixed;perimeter=ellipsePerimeter;html=1;align=center;shadow=0;dashed=0;spacingTop=3;image=img/lib/active_directory/user.svg;" vertex="1" parent="1">
          <mxGeometry x="641" y="130" width="18.5" height="50" as="geometry" />
        </mxCell>
        <mxCell id="u_pzTZ31QuZvwGdVfqPU-30" value="" style="shape=mxgraph.signs.transportation.truck_1;html=1;pointerEvents=1;fillColor=#000000;strokeColor=none;verticalLabelPosition=bottom;verticalAlign=top;align=center;" vertex="1" parent="1">
          <mxGeometry x="721" y="139" width="99" height="51" as="geometry" />
        </mxCell>
        <mxCell id="u_pzTZ31QuZvwGdVfqPU-31" style="edgeStyle=orthogonalEdgeStyle;rounded=0;orthogonalLoop=1;jettySize=auto;html=1;entryX=-0.024;entryY=0.31;entryDx=0;entryDy=0;entryPerimeter=0;" edge="1" parent="1" source="u_pzTZ31QuZvwGdVfqPU-29" target="u_pzTZ31QuZvwGdVfqPU-30">
          <mxGeometry relative="1" as="geometry" />
        </mxCell>
        <mxCell id="u_pzTZ31QuZvwGdVfqPU-35" value="Amazon API Gateway" style="sketch=0;outlineConnect=0;fontColor=#232F3E;gradientColor=none;strokeColor=#ffffff;fillColor=#232F3E;dashed=0;verticalLabelPosition=middle;verticalAlign=bottom;align=center;html=1;whiteSpace=wrap;fontSize=10;fontStyle=1;spacing=3;shape=mxgraph.aws4.productIcon;prIcon=mxgraph.aws4.api_gateway;" vertex="1" parent="1">
          <mxGeometry x="273" y="269" width="80" height="110" as="geometry" />
        </mxCell>
        <mxCell id="u_pzTZ31QuZvwGdVfqPU-48" style="edgeStyle=orthogonalEdgeStyle;rounded=0;orthogonalLoop=1;jettySize=auto;html=1;" edge="1" parent="1" source="u_pzTZ31QuZvwGdVfqPU-37">
          <mxGeometry relative="1" as="geometry">
            <mxPoint x="273" y="394" as="targetPoint" />
            <Array as="points">
              <mxPoint x="40" y="335" />
              <mxPoint x="40" y="394" />
            </Array>
          </mxGeometry>
        </mxCell>
        <mxCell id="u_pzTZ31QuZvwGdVfqPU-37" value="Cliente&amp;nbsp;&lt;div&gt;(Registrar Pedido)&lt;/div&gt;" style="verticalLabelPosition=bottom;html=1;verticalAlign=top;align=center;strokeColor=none;fillColor=#00BEF2;shape=mxgraph.azure.user;" vertex="1" parent="1">
          <mxGeometry x="-54" y="310" width="47.5" height="50" as="geometry" />
        </mxCell>
        <mxCell id="u_pzTZ31QuZvwGdVfqPU-40" value="/pedidos/registrar" style="text;html=1;align=center;verticalAlign=middle;whiteSpace=wrap;rounded=0;" vertex="1" parent="1">
          <mxGeometry x="183" y="299" width="60" height="30" as="geometry" />
        </mxCell>
        <mxCell id="u_pzTZ31QuZvwGdVfqPU-42" value="Cola Pedidos" style="text;html=1;align=center;verticalAlign=middle;whiteSpace=wrap;rounded=0;" vertex="1" parent="1">
          <mxGeometry x="276" y="180" width="77" height="30" as="geometry" />
        </mxCell>
        <mxCell id="u_pzTZ31QuZvwGdVfqPU-43" value="&lt;b&gt;&lt;font color=&quot;#0000cc&quot;&gt;Evento Nuevo Pedido&lt;/font&gt;&lt;/b&gt;" style="text;html=1;align=center;verticalAlign=middle;whiteSpace=wrap;rounded=0;" vertex="1" parent="1">
          <mxGeometry x="180" y="143" width="90" height="30" as="geometry" />
        </mxCell>
        <mxCell id="u_pzTZ31QuZvwGdVfqPU-50" style="edgeStyle=orthogonalEdgeStyle;rounded=0;orthogonalLoop=1;jettySize=auto;html=1;entryX=0;entryY=0.5;entryDx=0;entryDy=0;" edge="1" parent="1" source="u_pzTZ31QuZvwGdVfqPU-44" target="u_pzTZ31QuZvwGdVfqPU-29">
          <mxGeometry relative="1" as="geometry">
            <Array as="points">
              <mxPoint x="553" y="394" />
              <mxPoint x="553" y="155" />
            </Array>
          </mxGeometry>
        </mxCell>
        <mxCell id="u_pzTZ31QuZvwGdVfqPU-51" style="edgeStyle=orthogonalEdgeStyle;rounded=0;orthogonalLoop=1;jettySize=auto;html=1;entryX=0;entryY=0.5;entryDx=0;entryDy=0;" edge="1" parent="1" source="u_pzTZ31QuZvwGdVfqPU-44" target="u_pzTZ31QuZvwGdVfqPU-26">
          <mxGeometry relative="1" as="geometry">
            <Array as="points">
              <mxPoint x="553" y="394" />
              <mxPoint x="553" y="255" />
            </Array>
          </mxGeometry>
        </mxCell>
        <mxCell id="u_pzTZ31QuZvwGdVfqPU-52" style="edgeStyle=orthogonalEdgeStyle;rounded=0;orthogonalLoop=1;jettySize=auto;html=1;entryX=0;entryY=0.25;entryDx=0;entryDy=0;" edge="1" parent="1" source="u_pzTZ31QuZvwGdVfqPU-44" target="u_pzTZ31QuZvwGdVfqPU-18">
          <mxGeometry relative="1" as="geometry">
            <Array as="points">
              <mxPoint x="553" y="394" />
              <mxPoint x="553" y="343" />
            </Array>
          </mxGeometry>
        </mxCell>
        <mxCell id="u_pzTZ31QuZvwGdVfqPU-44" value="Microservicio pedidos" style="text;html=1;align=center;verticalAlign=middle;whiteSpace=wrap;rounded=0;" vertex="1" parent="1">
          <mxGeometry x="283" y="379" width="60" height="30" as="geometry" />
        </mxCell>
        <mxCell id="u_pzTZ31QuZvwGdVfqPU-45" value="/pedidos/procesar" style="text;html=1;align=center;verticalAlign=middle;whiteSpace=wrap;rounded=0;" vertex="1" parent="1">
          <mxGeometry x="386.5" y="299" width="60" height="30" as="geometry" />
        </mxCell>
        <mxCell id="u_pzTZ31QuZvwGdVfqPU-53" style="edgeStyle=orthogonalEdgeStyle;rounded=0;orthogonalLoop=1;jettySize=auto;html=1;entryX=0;entryY=0.5;entryDx=0;entryDy=0;entryPerimeter=0;" edge="1" parent="1" source="u_pzTZ31QuZvwGdVfqPU-35" target="u_pzTZ31QuZvwGdVfqPU-3">
          <mxGeometry relative="1" as="geometry">
            <Array as="points">
              <mxPoint x="80" y="324" />
              <mxPoint x="80" y="139" />
            </Array>
          </mxGeometry>
        </mxCell>
        <mxCell id="u_pzTZ31QuZvwGdVfqPU-54" style="edgeStyle=orthogonalEdgeStyle;rounded=0;orthogonalLoop=1;jettySize=auto;html=1;entryX=1;entryY=0.5;entryDx=0;entryDy=0;entryPerimeter=0;" edge="1" parent="1" source="u_pzTZ31QuZvwGdVfqPU-35" target="u_pzTZ31QuZvwGdVfqPU-7">
          <mxGeometry relative="1" as="geometry">
            <Array as="points">
              <mxPoint x="500" y="324" />
              <mxPoint x="500" y="139" />
            </Array>
          </mxGeometry>
        </mxCell>
        <mxCell id="u_pzTZ31QuZvwGdVfqPU-56" value="&lt;font style=&quot;font-size: 10px;&quot;&gt;t_pedidos_procesados&lt;/font&gt;" style="sketch=0;points=[[0,0,0],[0.25,0,0],[0.5,0,0],[0.75,0,0],[1,0,0],[0,1,0],[0.25,1,0],[0.5,1,0],[0.75,1,0],[1,1,0],[0,0.25,0],[0,0.5,0],[0,0.75,0],[1,0.25,0],[1,0.5,0],[1,0.75,0]];outlineConnect=0;fontColor=#232F3E;fillColor=#C925D1;strokeColor=#ffffff;dashed=0;verticalLabelPosition=bottom;verticalAlign=top;align=center;html=1;fontSize=12;fontStyle=0;aspect=fixed;shape=mxgraph.aws4.resourceIcon;resIcon=mxgraph.aws4.dynamodb;" vertex="1" parent="1">
          <mxGeometry x="417" y="220" width="41" height="41" as="geometry" />
        </mxCell>
        <mxCell id="u_pzTZ31QuZvwGdVfqPU-57" style="edgeStyle=orthogonalEdgeStyle;rounded=0;orthogonalLoop=1;jettySize=auto;html=1;entryX=0.5;entryY=0;entryDx=0;entryDy=0;entryPerimeter=0;" edge="1" parent="1" source="u_pzTZ31QuZvwGdVfqPU-7" target="u_pzTZ31QuZvwGdVfqPU-56">
          <mxGeometry relative="1" as="geometry" />
        </mxCell>
      </root>
    </mxGraphModel>
  </diagram>
</mxfile>
